<svg width="113" height="66" viewBox="0 0 113 66" fill="none" xmlns="http://www.w3.org/2000/svg">
<g clip-path="url(#clip0)">
<path d="M10.6068 65.4251C10.4108 65.4437 10.2095 65.4516 10.0082 65.4516C7.33531 65.4278 5.29293 64.498 3.75915 62.6039C1.55253 59.8781 0.477031 55.1205 0.580342 48.4635V47.8967L9.0969 48.2516L8.97769 48.8741C8.5565 51.0569 7.77769 57.102 9.24259 58.8371C9.34239 58.9667 9.47086 59.0715 9.61793 59.1432C9.765 59.2149 9.92667 59.2515 10.0903 59.2503C10.1132 59.2529 10.1363 59.2529 10.1592 59.2503C12.0479 59.0702 13.7035 51.8808 14.3128 46.6463C13.028 45.7774 8.06379 42.1059 7.84392 37.0675C7.57902 31.1099 12.3472 27.9258 16.877 27.4887C17.541 27.4256 18.209 27.4168 18.8744 27.4622C20.2227 21.894 23.0545 10.9271 31.7697 0.84764L31.9843 0.598633L38.4558 1.84896L38.326 2.39731C38.2969 2.52711 35.2797 15.5178 35.1472 25.3377C35.081 30.3549 35.7353 35.0437 37.0942 39.2821C38.0454 38.6468 38.9162 37.8988 39.6876 37.0543C39.6876 36.5245 39.6876 35.9947 39.7115 35.4649C40.1565 26.7417 47.8757 15.396 56.2492 14.5907C56.7184 14.5453 57.1902 14.5329 57.6611 14.5536C59.8519 14.6516 61.5976 15.3245 62.7101 16.5033C63.1499 16.9678 63.4916 17.5161 63.7151 18.1154C63.9385 18.7148 64.0391 19.353 64.0108 19.992C63.8704 22.7152 62.0267 24.8582 59.6267 25.0887C59.419 25.1099 59.21 25.1152 59.0015 25.1046C56.6174 24.9986 55.2188 23.5152 55.3353 21.2582C55.3628 20.7329 55.4933 20.218 55.7194 19.743C51.5605 21.2635 47.4148 30.7814 47.2426 34.3496C47.134 36.445 47.3274 37.7801 47.8651 38.6702C48.4373 39.6132 49.4545 40.0874 51.0969 40.1589C51.2975 40.1667 51.4983 40.1614 51.6982 40.143C55.8095 39.7457 60.7764 33.9072 62.4082 31.9894C62.6121 31.7483 62.7499 31.5894 62.8479 31.4781C63.2055 26.7841 67.526 23.7086 69.3671 22.6013C68.4161 21.8066 67.0307 20.0264 67.2161 16.3867C67.3459 13.8331 68.6201 11.6344 70.8982 10.0291C72.9479 8.64266 75.3177 7.80286 77.783 7.58936C78.4378 7.52377 79.0964 7.50518 79.7539 7.53373C82.2598 7.64499 84.0347 8.32843 85.0333 9.55492C85.6944 10.3997 86.0106 11.4637 85.9181 12.5324C85.8333 14.1827 84.6068 16.7417 81.5711 17.0357C81.2814 17.0629 80.9902 17.0699 80.6996 17.0569C80.3318 17.0547 79.9683 16.9784 79.6306 16.8328C79.293 16.6872 78.988 16.4751 78.734 16.2092C77.987 15.3827 77.9817 14.2781 78.0161 13.841C78.0499 13.4069 78.1593 12.9819 78.3393 12.5854C76.779 12.9298 74.1353 14.1033 73.987 16.9854C73.9313 18.0688 74.1724 18.8662 74.7022 19.3695C75.4254 20.0397 76.5989 20.0847 77.4572 20.0026C77.8733 19.9616 78.2853 19.8863 78.689 19.7774L79.7274 19.4675L77.9234 24.747L77.4969 24.7258C77.2186 24.7143 76.9398 24.7214 76.6625 24.747C73.232 25.0781 70.9671 28.3549 70.8559 30.5589C70.7631 32.3708 72.2068 33.7059 74.3684 33.8013C74.5201 33.8118 74.6724 33.8118 74.8241 33.8013C82.7393 33.0198 92.8611 5.4834 93.4678 3.19201L93.5843 2.76022L94.04 2.77877C96.3313 2.88208 97.8519 3.43307 98.681 4.46618C99.6956 5.72446 99.3698 7.3642 99.1552 8.43969C99.0962 8.70179 99.0529 8.96716 99.0254 9.2344C98.9539 10.6728 101.02 12.0159 103.412 13.5682C107.229 16.0476 111.982 19.1311 111.971 24.8794C111.971 28.2463 110.647 34.0159 101.905 34.8582C100.739 34.9671 99.5655 34.9777 98.3976 34.89C94.0399 34.5721 91.64 31.4145 91.836 28.5483C91.926 27.2079 93.1472 24.1668 96.1777 23.8755C96.6123 23.8367 97.0501 23.8519 97.481 23.9205C97.9171 23.9693 98.3372 24.1132 98.7116 24.342C99.086 24.5709 99.4056 24.8791 99.6479 25.245C100.443 26.4821 100.323 28.2463 100.141 29.3298C101.338 28.8556 103.364 27.6582 103.5 24.9721C103.653 21.9788 98.4532 17.3271 95.8174 15.29C94.1088 19.3907 85.0519 39.7589 73.4625 40.8768C73.24 40.898 73.0174 40.9112 72.7976 40.9192C67.2135 41.0914 65.0625 38.6622 64.281 37.2106C62.4611 39.69 56.8347 46.6675 50.7711 47.2529C50.3873 47.2903 50.0013 47.3 49.6161 47.2821C45.8439 47.1152 43.2108 45.9576 41.5896 43.7165C40.9546 44.2198 40.2714 44.659 39.5499 45.0278C42.138 49.7483 46.3022 53.3563 46.3472 53.3933L46.7313 53.7245L46.4267 54.1298C46.3234 54.2675 43.8386 57.5046 38.9221 57.9788C38.3269 58.0355 37.7285 58.0497 37.1313 58.0212H36.8982L36.7446 57.8543C33.934 54.8344 31.9366 50.2622 31.3141 48.7258C29.9337 49.1902 28.5044 49.4942 27.0545 49.6318C25.0216 49.842 22.9675 49.6886 20.9883 49.1788C20.4241 52.4026 17.2797 64.7735 10.6068 65.4172V65.4251ZM21.775 43.7324C23.0054 44.218 24.3361 44.3944 25.6505 44.2463C26.9216 44.1104 28.1629 43.7724 29.3274 43.245C28.6594 41.2051 28.1719 39.1106 27.8704 36.9854C27.436 36.6331 25.9949 35.592 23.5631 34.9801L21.775 43.7324ZM15.5525 33.9973C13.9843 34.1483 13.1101 34.9324 13.0943 36.2039C13.0704 37.9125 14.7499 39.4993 15.7247 40.2755L17.0492 34.0238C16.5517 33.9628 16.0492 33.9539 15.5499 33.9973H15.5525ZM24.726 29.0278C25.8427 29.4618 26.9189 29.9937 27.9419 30.6172C28.0823 22.8053 29.5552 16.1695 30.7366 11.6794C28.7366 15.4384 27.028 20.1059 24.726 29.0145" fill="white"/>
<path d="M15.4994 33.4519C13.4491 33.6479 12.5404 34.8082 12.5404 36.1989C12.5034 38.9274 16.1034 41.232 16.1034 41.232L17.7298 33.5631C16.9944 33.4288 16.2445 33.3914 15.4994 33.4519ZM15.3722 39.24C14.5113 38.4188 13.6398 37.2982 13.653 36.2095C13.653 35.2267 14.3232 34.6651 15.6053 34.5433C15.8606 34.5185 16.1173 34.5114 16.3736 34.5221L15.3722 39.24Z" fill="#ED8B00"/>
<path d="M23.1364 34.3232L21.147 44.061C22.572 44.7207 24.1508 44.9764 25.7112 44.8001C27.2113 44.6464 28.6699 44.2162 30.0132 43.5312C29.2543 41.322 28.7149 39.0435 28.4026 36.7285C28.4026 36.7285 26.6622 35.0676 23.1364 34.3232ZM25.6052 43.7087C24.5351 43.8251 23.4524 43.7169 22.4264 43.3908L23.9946 35.6689C25.1945 36.0094 26.3271 36.5532 27.343 37.2769C27.6304 39.1953 28.0653 41.0888 28.6436 42.9405C27.6689 43.3372 26.6436 43.5958 25.5973 43.7087H25.6052Z" fill="#ED8B00"/>
<path d="M28.49 31.6956C28.5139 20.6704 31.2609 11.9313 32.3602 7.85449C29.2715 12.6227 27.1973 17.1525 24.0609 29.3644C24.0609 29.3644 26.845 30.371 28.49 31.6956ZM27.4039 29.6664C26.6648 29.2611 25.9364 28.93 25.388 28.6969C26.5801 24.1273 27.6397 20.4717 28.8688 17.2426C28.0395 21.3392 27.5496 25.4972 27.4039 29.6744V29.6664Z" fill="#ED8B00"/>
<path d="M103.722 13.1258C101.566 11.7245 99.5285 10.4026 99.5867 9.27417C99.6119 9.03093 99.6517 8.78943 99.7059 8.55099C99.939 7.36954 100.294 5.58146 99.1232 4.1245C98.1854 2.96159 96.5324 2.34172 94.0662 2.23311L93.1549 2.19073L92.9245 3.05695C92.7073 3.88079 90.0609 11.4146 86.4 18.8132C80.3841 30.9642 76.5377 33.0622 74.7788 33.2318C74.6544 33.241 74.5296 33.241 74.4053 33.2318C73.5728 33.2278 72.7686 32.9294 72.1351 32.3894C71.8878 32.1569 71.6955 31.8722 71.5722 31.556C71.4489 31.2398 71.3978 30.9001 71.4225 30.5616C71.5258 28.5563 73.592 25.5735 76.7205 25.2636C76.9714 25.2401 77.2237 25.2339 77.4755 25.245L78.3231 25.2821L78.588 24.4874L79.9125 20.6093L80.6013 18.5934L78.5324 19.245C78.1652 19.3433 77.7904 19.4107 77.4119 19.4464C76.8053 19.5073 75.698 19.5205 75.0967 18.9616C74.6914 18.5854 74.5086 17.9285 74.5669 17.0093C74.6702 14.9828 76.1986 13.9099 77.5231 13.404C77.502 13.5338 77.4861 13.6689 77.4755 13.804C77.4357 14.3099 77.4437 15.5921 78.3337 16.5722C78.6367 16.8945 79.0018 17.1522 79.407 17.3297C79.8121 17.5073 80.249 17.601 80.6914 17.6053C81.0085 17.6187 81.3262 17.6108 81.6423 17.5815C85.0304 17.2556 86.4106 14.4026 86.4953 12.5616C86.5957 11.3558 86.234 10.1569 85.4834 9.20795C84.3814 7.85166 82.4662 7.08874 79.7934 6.98278C76.5174 6.85765 73.285 7.76582 70.5536 9.57881C68.1324 11.2901 66.7788 13.6371 66.641 16.3603C66.4768 19.5894 67.502 21.4728 68.4609 22.5139C66.3682 23.8861 62.7152 26.8795 62.2887 31.2556L61.9629 31.6344C57.6821 36.6675 54.2066 39.3457 51.6318 39.5947C51.4554 39.607 51.2783 39.607 51.102 39.5947C48.0556 39.4596 47.6026 37.7987 47.7775 34.3576C47.8596 32.747 48.943 29.2318 50.792 25.8808C52.09 23.5364 53.4967 21.7828 54.8 20.8477C54.7841 20.9669 54.7735 21.0887 54.7655 21.2159C54.6357 23.7828 56.2834 25.5179 58.9642 25.6371C59.2001 25.6468 59.4364 25.6406 59.6715 25.6185C62.3523 25.3536 64.4106 22.9987 64.5616 20.0026C64.5941 19.2959 64.4848 18.5898 64.24 17.926C63.9952 17.2622 63.62 16.6542 63.1364 16.1377C62.2887 15.2397 60.6596 14.143 57.7033 14.0185C57.2049 13.9975 56.7058 14.0107 56.2092 14.0583C52.0583 14.4583 47.8808 17.253 44.4397 21.9285C41.3563 26.1219 39.3827 31.1788 39.1655 35.4543C39.139 35.9311 39.1311 36.3973 39.1364 36.8662C38.6094 37.4239 38.0331 37.9328 37.4145 38.3867C36.1889 34.1485 35.6137 29.7487 35.7086 25.3377C35.8384 15.5735 38.8424 2.64106 38.8741 2.51391L39.139 1.41457L38.0106 1.19735L32.4079 0.124503L31.7589 0L31.3483 0.495364C22.7761 10.4106 19.8543 21.1576 18.445 26.8901C17.9067 26.8725 17.3679 26.8893 16.8318 26.9404C12.045 27.4013 7.01454 30.7735 7.29533 37.0914C7.51255 42.0556 12.0635 45.7245 13.7271 46.8927C13.5841 48 13.245 50.3735 12.6967 52.7364C11.3722 58.4185 10.1324 58.694 10.1192 58.694C10.0356 58.6978 9.95235 58.6804 9.87731 58.6433C9.80227 58.6063 9.73784 58.5508 9.69003 58.4821C8.57745 57.1576 8.93771 52.1245 9.54699 48.9642L9.78805 47.7245L8.49798 47.6689L1.17877 47.3748L0.021157 47.3245L0.00526295 48.4609C-0.0848033 55.245 1.03043 60.1165 3.31917 62.9457C4.96155 64.9775 7.14963 65.9762 10.0026 66C10.222 66.0022 10.4413 65.9925 10.6596 65.9708C14.0556 65.645 16.9351 62.649 19.2185 57.0728C20.1573 54.7351 20.8929 52.3209 21.4172 49.8569C23.278 50.2684 25.1926 50.3802 27.0887 50.1881C28.4056 50.0611 29.7066 49.8028 30.9722 49.4172C31.7669 51.306 33.69 55.4225 36.3099 58.2358L36.6198 58.5695L37.0834 58.5907C37.708 58.6196 38.3338 58.6046 38.9563 58.5457C44.1218 58.0477 46.7496 54.6199 46.8609 54.4742L47.4675 53.6636L46.6993 53.0013C46.6596 52.9669 42.8397 49.6503 40.294 45.2636C40.6973 45.0327 41.0882 44.7807 41.4649 44.5086C43.2026 46.5907 45.8702 47.6874 49.5682 47.8517C49.9808 47.8701 50.3942 47.8594 50.8053 47.8199C56.6119 47.2609 61.9708 41.1338 64.2225 38.204C65.3483 39.7483 67.7589 41.6477 72.792 41.4834C73.0251 41.4834 73.2609 41.4622 73.494 41.4411C84.8503 40.347 93.7298 21.5338 96.0291 16.1907C99.139 18.6728 103.049 22.6119 102.93 24.9642C102.899 25.6713 102.689 26.3588 102.318 26.9616C101.947 27.5643 101.428 28.0622 100.811 28.4079C100.885 27.3192 100.779 26.0238 100.109 24.9801C99.8247 24.5455 99.4494 24.178 99.0087 23.9035C98.5681 23.629 98.0729 23.454 97.5576 23.3907C97.08 23.3172 96.5953 23.3012 96.1139 23.343C92.7284 23.6689 91.3669 27.0517 91.2662 28.5271C91.0516 31.6609 93.6503 35.1046 98.3443 35.4516C99.5432 35.5411 100.747 35.5296 101.944 35.4172C104.84 35.1391 107.306 34.2358 109.075 32.8053C111.362 30.951 112.519 28.302 112.519 24.8927C112.543 18.853 107.446 15.5364 103.722 13.1258ZM101.841 34.3179C100.708 34.4246 99.567 34.4353 98.4318 34.3497C94.3099 34.0477 92.2119 31.1126 92.3841 28.5881C92.4556 27.5576 93.4702 24.6914 96.2172 24.4265C96.605 24.3916 96.9956 24.405 97.3801 24.4662C100.906 24.996 99.3775 30.1483 99.3775 30.1483C99.3775 30.1483 103.833 29.245 104.05 25.0066C104.268 20.7682 95.5523 14.4238 95.5523 14.4238C95.5523 14.4238 85.8092 39.1444 73.3907 40.3391C73.1814 40.3603 72.9722 40.3735 72.7629 40.3814C65.3854 40.6119 64.3973 36.0715 64.3973 36.0715C64.3973 36.0715 57.743 46.0424 50.6993 46.7205C50.3419 46.7554 49.9826 46.7651 49.6238 46.7497C46.2834 46.6013 43.3589 45.6265 41.698 42.9139C40.8208 43.6849 39.8322 44.319 38.7655 44.7947C41.4013 49.9099 45.9602 53.8278 45.9602 53.8278C44.1579 55.9213 41.6057 57.2235 38.853 57.4543C38.2843 57.5093 37.7123 57.5226 37.1417 57.494C33.8251 53.947 31.6132 48.0265 31.6132 48.0265C30.1249 48.5939 28.5645 48.9506 26.9774 49.0861C24.8042 49.3105 22.608 49.1007 20.5165 48.4689C20.5165 49.1179 17.6026 64.1907 10.5483 64.8689C10.3723 64.8872 10.1954 64.8952 10.0185 64.8927C6.55891 64.8636 0.929766 63.3616 1.13109 48.4689L8.43705 48.7735C8.43705 48.7735 6.31785 59.7669 10.0874 59.7987C10.1306 59.8026 10.174 59.8026 10.2172 59.7987C13.4675 59.4808 14.9245 46.3708 14.9245 46.3708C14.9245 46.3708 8.65692 42.4848 8.41851 37.0384C8.17745 31.4755 12.4953 28.4609 16.9457 28.0318C17.7389 27.9552 18.5379 27.9614 19.3298 28.0503C20.6543 22.5483 23.3404 11.4702 32.2172 1.2L37.7801 2.29139C37.7801 2.29139 34.7205 15.351 34.5854 25.3377C34.5059 31.3563 35.4569 36.2622 36.792 40.1722C37.8516 39.4728 39.3722 38.3682 40.2516 37.2583C40.2357 36.7073 40.2419 36.1263 40.2702 35.5152C40.6887 27.3563 48.0185 15.9576 56.302 15.1603C56.7421 15.1174 57.1847 15.1059 57.6265 15.1258C62.2066 15.3298 63.5417 18.0397 63.4543 19.9921C63.3245 22.5324 61.6318 24.3682 59.5761 24.5669C59.3954 24.5815 59.2138 24.5815 59.0331 24.5669C57.3271 24.4927 55.7801 23.6 55.8967 21.2927C55.9067 20.8578 56.0059 20.4295 56.1882 20.0344C56.3705 19.6394 56.6319 19.286 56.9563 18.996C56.7993 18.9854 56.6417 18.9854 56.4847 18.996C51.5894 19.4675 46.8635 30.445 46.6649 34.3179C46.4609 38.3099 47.2794 40.5298 51.0543 40.6993C51.2844 40.7166 51.5154 40.7175 51.7457 40.702C56.8212 40.2119 62.853 32.1987 63.4013 31.7192C63.6927 25.992 70.437 22.6517 70.437 22.6517C70.437 22.6517 67.5231 21.4702 67.788 16.4238C68.0529 11.1762 73.351 8.57748 77.8543 8.14305C78.4827 8.0811 79.1147 8.06339 79.7457 8.09007C85.1417 8.33112 85.449 11.2106 85.3828 12.5219C85.3218 13.7272 84.3894 16.2305 81.5443 16.4954C81.2802 16.5207 81.0146 16.5269 80.7496 16.5139C78.9139 16.4318 78.5192 14.9245 78.596 13.8861C78.6542 13.1557 78.9565 12.4662 79.4543 11.9285C79.2775 11.9211 79.1005 11.9264 78.9245 11.9444C77.0702 12.1245 73.6265 13.494 73.449 16.9775C73.2715 20.4609 75.8516 20.6967 77.5179 20.5351C77.9709 20.493 78.4194 20.4114 78.8582 20.2914L77.5337 24.1695C77.2281 24.1553 76.9218 24.1623 76.6172 24.1907C72.9377 24.543 70.4344 27.9868 70.3046 30.5219C70.1933 32.6596 71.8728 34.2305 74.3496 34.3391C74.5264 34.3467 74.7035 34.3414 74.8794 34.3232C83.3192 33.5126 93.4649 5.36954 94.0053 3.3298C100.567 3.62119 98.5377 7.69271 98.4609 9.22649C98.241 13.5046 111.422 15.6742 111.404 24.898C111.393 31.6106 106.49 33.8781 101.841 34.3258V34.3179Z" fill="#ED8B00"/>
</g>
<defs>
<clipPath id="clip0">
<path d="M0 0H112.53V66H0V0Z" fill="white"/>
</clipPath>
</defs>
</svg>
